<svg width="553" height="188" viewBox="0 0 553 188" fill="none" xmlns="http://www.w3.org/2000/svg">
<path d="M82.2578 109.379C82.2578 106.449 81.8021 103.845 80.8906 101.566C80.0443 99.2878 78.5143 97.2044 76.3008 95.3164C74.0872 93.4284 70.9622 91.6055 66.9258 89.8477C62.9544 88.0247 57.8763 86.1693 51.6914 84.2812C44.9206 82.1979 38.6706 79.8867 32.9414 77.3477C27.2773 74.7435 22.3294 71.7487 18.0977 68.3633C13.8659 64.9128 10.5781 60.974 8.23438 56.5469C5.89062 52.0547 4.71875 46.8789 4.71875 41.0195C4.71875 35.2253 5.92318 29.9518 8.33203 25.1992C10.806 20.4466 14.2891 16.3451 18.7812 12.8945C23.3385 9.37891 28.7096 6.67708 34.8945 4.78906C41.0794 2.83594 47.9154 1.85938 55.4023 1.85938C65.9492 1.85938 75.0312 3.8125 82.6484 7.71875C90.3307 11.625 96.2227 16.8659 100.324 23.4414C104.491 30.0169 106.574 37.276 106.574 45.2188H82.2578C82.2578 40.5312 81.2487 36.3971 79.2305 32.8164C77.2773 29.1706 74.2826 26.306 70.2461 24.2227C66.2747 22.1393 61.2292 21.0977 55.1094 21.0977C49.3151 21.0977 44.4974 21.9766 40.6562 23.7344C36.8151 25.4922 33.9505 27.8685 32.0625 30.8633C30.1745 33.8581 29.2305 37.2435 29.2305 41.0195C29.2305 43.6888 29.849 46.1302 31.0859 48.3438C32.3229 50.4922 34.2109 52.5104 36.75 54.3984C39.2891 56.2214 42.4792 57.9466 46.3203 59.5742C50.1615 61.2018 54.6862 62.7643 59.8945 64.2617C67.7721 66.6055 74.6406 69.2096 80.5 72.0742C86.3594 74.8737 91.2422 78.0638 95.1484 81.6445C99.0547 85.2253 101.984 89.2943 103.938 93.8516C105.891 98.3438 106.867 103.454 106.867 109.184C106.867 115.173 105.663 120.577 103.254 125.395C100.845 130.147 97.3945 134.216 92.9023 137.602C88.4753 140.922 83.1367 143.493 76.8867 145.316C70.7018 147.074 63.8008 147.953 56.1836 147.953C49.3477 147.953 42.6094 147.042 35.9688 145.219C29.3932 143.396 23.4036 140.629 18 136.918C12.5964 133.142 8.29948 128.454 5.10938 122.855C1.91927 117.191 0.324219 110.583 0.324219 103.031H24.8359C24.8359 107.654 25.6172 111.592 27.1797 114.848C28.8073 118.103 31.0534 120.772 33.918 122.855C36.7826 124.874 40.1029 126.371 43.8789 127.348C47.7201 128.324 51.8216 128.812 56.1836 128.812C61.9128 128.812 66.6979 127.999 70.5391 126.371C74.4453 124.743 77.375 122.465 79.3281 119.535C81.2812 116.605 82.2578 113.22 82.2578 109.379ZM151.398 40.3359V146H127.766V40.3359H151.398ZM126.203 12.6016C126.203 9.02083 127.375 6.05859 129.719 3.71484C132.128 1.30599 135.448 0.101562 139.68 0.101562C143.846 0.101562 147.134 1.30599 149.543 3.71484C151.952 6.05859 153.156 9.02083 153.156 12.6016C153.156 16.1172 151.952 19.0469 149.543 21.3906C147.134 23.7344 143.846 24.9062 139.68 24.9062C135.448 24.9062 132.128 23.7344 129.719 21.3906C127.375 19.0469 126.203 16.1172 126.203 12.6016ZM244.855 40.3359H266.242V143.07C266.242 152.576 264.224 160.648 260.188 167.289C256.151 173.93 250.52 178.975 243.293 182.426C236.066 185.941 227.701 187.699 218.195 187.699C214.159 187.699 209.667 187.113 204.719 185.941C199.836 184.77 195.083 182.882 190.461 180.277C185.904 177.738 182.095 174.385 179.035 170.219L190.07 156.352C193.846 160.844 198.013 164.132 202.57 166.215C207.128 168.298 211.913 169.34 216.926 169.34C222.329 169.34 226.919 168.331 230.695 166.312C234.536 164.359 237.499 161.462 239.582 157.621C241.665 153.78 242.707 149.092 242.707 143.559V64.2617L244.855 40.3359ZM173.078 94.3398V92.2891C173.078 84.2812 174.055 76.9896 176.008 70.4141C177.961 63.7734 180.76 58.0768 184.406 53.3242C188.052 48.5065 192.479 44.8281 197.688 42.2891C202.896 39.6849 208.788 38.3828 215.363 38.3828C222.199 38.3828 228.026 39.6198 232.844 42.0938C237.727 44.5677 241.796 48.1159 245.051 52.7383C248.306 57.2956 250.845 62.7643 252.668 69.1445C254.556 75.4596 255.956 82.4909 256.867 90.2383V96.7812C256.021 104.333 254.589 111.234 252.57 117.484C250.552 123.734 247.883 129.138 244.562 133.695C241.242 138.253 237.141 141.768 232.258 144.242C227.44 146.716 221.743 147.953 215.168 147.953C208.723 147.953 202.896 146.618 197.688 143.949C192.544 141.28 188.117 137.536 184.406 132.719C180.76 127.901 177.961 122.237 176.008 115.727C174.055 109.151 173.078 102.022 173.078 94.3398ZM196.613 92.2891V94.3398C196.613 99.1576 197.069 103.65 197.98 107.816C198.957 111.983 200.422 115.661 202.375 118.852C204.393 121.977 206.932 124.451 209.992 126.273C213.117 128.031 216.796 128.91 221.027 128.91C226.561 128.91 231.086 127.738 234.602 125.395C238.182 123.051 240.917 119.893 242.805 115.922C244.758 111.885 246.125 107.393 246.906 102.445V84.7695C246.516 80.9284 245.702 77.3477 244.465 74.0273C243.293 70.707 241.698 67.8099 239.68 65.3359C237.661 62.7969 235.122 60.8438 232.062 59.4766C229.003 58.0443 225.389 57.3281 221.223 57.3281C216.991 57.3281 213.312 58.2396 210.188 60.0625C207.062 61.8854 204.491 64.3919 202.473 67.582C200.52 70.7721 199.055 74.4831 198.078 78.7148C197.102 82.9466 196.613 87.4714 196.613 92.2891Z" fill="#3777F0"/>
<path d="M314.191 61.8203V146H290.656V40.3359H312.824L314.191 61.8203ZM310.383 89.2617L302.375 89.1641C302.375 81.8724 303.286 75.1341 305.109 68.9492C306.932 62.7643 309.602 57.3932 313.117 52.8359C316.633 48.2135 320.995 44.6654 326.203 42.1914C331.477 39.6523 337.564 38.3828 344.465 38.3828C349.283 38.3828 353.677 39.099 357.648 40.5312C361.685 41.8984 365.168 44.0794 368.098 47.0742C371.092 50.069 373.371 53.9102 374.934 58.5977C376.561 63.2852 377.375 68.9492 377.375 75.5898V146H353.84V77.6406C353.84 72.4974 353.059 68.4609 351.496 65.5312C349.999 62.6016 347.818 60.5182 344.953 59.2812C342.154 57.9792 338.801 57.3281 334.895 57.3281C330.467 57.3281 326.691 58.1745 323.566 59.8672C320.507 61.5599 318 63.8711 316.047 66.8008C314.094 69.7305 312.661 73.1159 311.75 76.957C310.839 80.7982 310.383 84.8997 310.383 89.2617ZM375.91 83.0117L364.875 85.4531C364.875 79.0729 365.754 73.0508 367.512 67.3867C369.335 61.6576 371.971 56.6445 375.422 52.3477C378.938 47.9857 383.267 44.5677 388.41 42.0938C393.553 39.6198 399.445 38.3828 406.086 38.3828C411.49 38.3828 416.307 39.1315 420.539 40.6289C424.836 42.0612 428.482 44.3398 431.477 47.4648C434.471 50.5898 436.75 54.6589 438.312 59.6719C439.875 64.6198 440.656 70.6094 440.656 77.6406V146H417.023V77.543C417.023 72.2044 416.242 68.0703 414.68 65.1406C413.182 62.2109 411.034 60.1927 408.234 59.0859C405.435 57.9141 402.082 57.3281 398.176 57.3281C394.53 57.3281 391.307 58.0117 388.508 59.3789C385.773 60.681 383.462 62.5365 381.574 64.9453C379.686 67.2891 378.254 69.9909 377.277 73.0508C376.366 76.1107 375.91 79.431 375.91 83.0117ZM524.445 124.809V74.418C524.445 70.6419 523.762 67.3867 522.395 64.6523C521.027 61.918 518.944 59.8021 516.145 58.3047C513.41 56.8073 509.96 56.0586 505.793 56.0586C501.952 56.0586 498.632 56.7096 495.832 58.0117C493.033 59.3138 490.852 61.0716 489.289 63.2852C487.727 65.4987 486.945 68.0052 486.945 70.8047H463.508C463.508 66.638 464.517 62.6016 466.535 58.6953C468.553 54.7891 471.483 51.306 475.324 48.2461C479.165 45.1862 483.755 42.7773 489.094 41.0195C494.432 39.2617 500.422 38.3828 507.062 38.3828C515.005 38.3828 522.036 39.7174 528.156 42.3867C534.341 45.056 539.191 49.0924 542.707 54.4961C546.288 59.8346 548.078 66.5404 548.078 74.6133V121.586C548.078 126.404 548.404 130.733 549.055 134.574C549.771 138.35 550.78 141.638 552.082 144.438V146H527.961C526.854 143.461 525.975 140.238 525.324 136.332C524.738 132.361 524.445 128.52 524.445 124.809ZM527.863 81.7422L528.059 96.293H511.164C506.802 96.293 502.961 96.7161 499.641 97.5625C496.32 98.3438 493.553 99.5156 491.34 101.078C489.126 102.641 487.466 104.529 486.359 106.742C485.253 108.956 484.699 111.462 484.699 114.262C484.699 117.061 485.35 119.633 486.652 121.977C487.954 124.255 489.842 126.046 492.316 127.348C494.855 128.65 497.915 129.301 501.496 129.301C506.314 129.301 510.513 128.324 514.094 126.371C517.74 124.353 520.604 121.911 522.688 119.047C524.771 116.117 525.878 113.35 526.008 110.746L533.625 121.195C532.844 123.865 531.509 126.729 529.621 129.789C527.733 132.849 525.259 135.779 522.199 138.578C519.204 141.312 515.591 143.559 511.359 145.316C507.193 147.074 502.375 147.953 496.906 147.953C490.005 147.953 483.853 146.586 478.449 143.852C473.046 141.052 468.814 137.309 465.754 132.621C462.694 127.868 461.164 122.497 461.164 116.508C461.164 110.909 462.206 105.961 464.289 101.664C466.438 97.3021 469.562 93.6562 473.664 90.7266C477.831 87.7969 482.909 85.5833 488.898 84.0859C494.888 82.5234 501.724 81.7422 509.406 81.7422H527.863Z" fill="url(#paint0_radial_13_2)"/>
<defs>
<radialGradient id="paint0_radial_13_2" cx="0" cy="0" r="1" gradientUnits="userSpaceOnUse" gradientTransform="translate(277 78) rotate(90) scale(117 284)">
<stop offset="0.609375" stop-color="#3777F0"/>
<stop offset="1" stop-color="#3777F0" stop-opacity="0"/>
</radialGradient>
</defs>
</svg>
